/* XPM */
static char * ax_xpm[] = {
"32 32 143 2",
"  	c None",
". 	c #FFFFFF",
"+ 	c #FFA3A3",
"@ 	c #FF0000",
"# 	c #FF7676",
"$ 	c #FFFCFC",
"% 	c #FFFEFE",
"& 	c #FF8282",
"* 	c #FF9999",
"= 	c #FFF9F9",
"- 	c #FF6666",
"; 	c #FFB6B6",
"> 	c #FFC3C3",
", 	c #FF5656",
"' 	c #FFF6F6",
") 	c #FFE4E4",
"! 	c #FF1C1C",
"~ 	c #FF1616",
"{ 	c #FFE3E3",
"] 	c #FFEDED",
"^ 	c #FF3232",
"/ 	c #FFDCDC",
"( 	c #FFBCBC",
"_ 	c #FF6868",
": 	c #FFFAFA",
"< 	c #FF8181",
"[ 	c #FFADAD",
"} 	c #FF8383",
"| 	c #FFAAAA",
"1 	c #FFC2C2",
"2 	c #FF6E6E",
"3 	c #FFFBFB",
"4 	c #FFF0F0",
"5 	c #FF4242",
"6 	c #FF2626",
"7 	c #FFE7E7",
"8 	c #FFD1D1",
"9 	c #FF5858",
"0 	c #FF7D7D",
"a 	c #FFBFBF",
"b 	c #E4E4FF",
"c 	c #9B9BFF",
"d 	c #6868FF",
"e 	c #3232FF",
"f 	c #4242FF",
"g 	c #8282FF",
"h 	c #CDCDFF",
"i 	c #FF9F9F",
"j 	c #FF8484",
"k 	c #D2D2FF",
"l 	c #0000FF",
"m 	c #8383FF",
"n 	c #A1A1FF",
"o 	c #8E8EFF",
"p 	c #2222FF",
"q 	c #AAAAFF",
"r 	c #FFC7C7",
"s 	c #FF9C9C",
"t 	c #FAFAFF",
"u 	c #3535FF",
"v 	c #E5E5FF",
"w 	c #1C1CFF",
"x 	c #ECECFF",
"y 	c #FF3838",
"z 	c #FF3535",
"A 	c #FF5555",
"B 	c #FFD3D3",
"C 	c #E2E2FF",
"D 	c #6262FF",
"E 	c #6565FF",
"F 	c #8484FF",
"G 	c #CBCBFF",
"H 	c #FF7A7A",
"I 	c #FFC5C5",
"J 	c #FFDADA",
"K 	c #FF4949",
"L 	c #FFF3F3",
"M 	c #9C9CFF",
"N 	c #C1C1FF",
"O 	c #FFB4B4",
"P 	c #FF8888",
"Q 	c #FF9090",
"R 	c #C5C5FF",
"S 	c #8F8FFF",
"T 	c #4040FF",
"U 	c #2E2EFF",
"V 	c #C0C0FF",
"W 	c #FFDFDF",
"X 	c #FF0D0D",
"Y 	c #FF3D3D",
"Z 	c #FFF7F7",
"` 	c #FFCACA",
" .	c #F3F3FF",
"..	c #6666FF",
"+.	c #4545FF",
"@.	c #9898FF",
"#.	c #AFAFFF",
"$.	c #B8B8FF",
"%.	c #BBBBFF",
"&.	c #7575FF",
"*.	c #FF5C5C",
"=.	c #FFCCCC",
"-.	c #FF3B3B",
";.	c #FFEFEF",
">.	c #A2A2FF",
",.	c #8080FF",
"'.	c #F8F8FF",
").	c #FF9B9B",
"!.	c #FF9292",
"~.	c #5151FF",
"{.	c #DADAFF",
"].	c #7373FF",
"^.	c #FFCDCD",
"/.	c #FFC0C0",
"(.	c #4747FF",
"_.	c #E3E3FF",
":.	c #DEDEFF",
"<.	c #FFEEEE",
"[.	c #FFD2D2",
"}.	c #FF2A2A",
"|.	c #FFEAEA",
"1.	c #8181FF",
"2.	c #B5B5FF",
"3.	c #5858FF",
"4.	c #7C7CFF",
"5.	c #B2B2FF",
"6.	c #D7D7FF",
"7.	c #8A8AFF",
"8.	c #A7A7FF",
"9.	c #0D0DFF",
"0.	c #BDBDFF",
"a.	c #CFCFFF",
"b.	c #4B4BFF",
"c.	c #EBEBFF",
"d.	c #CECEFF",
"e.	c #2A2AFF",
"f.	c #8787FF",
"g.	c #D6D6FF",
"h.	c #FCFCFF",
"i.	c #9999FF",
"j.	c #3B3BFF",
"k.	c #5353FF",
"l.	c #DCDCFF",
". . . . . . . . . . . . . . . . . . . . . . . . . . . . . . . . ",
". . . . . . . . . . . . . . . . . . . . . . . . . . . . . . . . ",
". . . . . . . . . . . . . . . . . . . . . . . . . . . . . . . . ",
". . . . . . . . . . . . . . . . . . . . . . . . . . . . . . . . ",
". . . . . . . . . . . . . . . . . . . . . . . . . . . . . . . . ",
". . . . . . . . . . . . . . . . + @ # $ . . . . . . % & @ * . . ",
". . . . . . . . . . . . . . . . = - @ ; . . . . . . > @ , ' . . ",
". . . . . . . . . . . . . . . . . ) ! ~ { . . . . ] ^ @ / . . . ",
". . . . . . . . . . . . . . . . . . ( @ _ : . . % < @ [ . . . . ",
". . . . . . . . . . . . . . . . . . % } @ | . . 1 @ 2 3 . . . . ",
". . . . . . . . . . . . . . . . . . . 4 5 @ / ] ^ 6 7 . . . . . ",
". . . . . . . . . . . . . . . . . . . . 8 @ 9 0 @ a . . . . . . ",
". . . . b c d e f g h . . . . . . . . . . i @ @ j % . . . . . . ",
". . . k l l m n o p l q . . . . . . . . . r @ @ s . . . . . . . ",
". . t u l k . . . v w l x . . . . . . . ] y z A @ B . . . . . . ",
". . C D E . . . . . F l G . . . . . . $ H @ I J @ K L . . . . . ",
". . . . . . . . . . M l N . . . . . . O @ P . . + @ Q . . . . . ",
". . . t R S D T U w l l V . . . . . W X Y 4 . . Z 9 @ ` . . . . ",
". .  ...l +.@.#.$.%.&.l V . . . . Z *.@ =.. . . . J @ -.;.. . . ",
". . >.l ,.'.. . . . c l V . . . . ).@ !.. . . . . . + @ } % . . ",
". . ~.l {.. . . . . ].l V . . . ^.@ K L . . . . . . Z 9 @ /.. . ",
". . (.l _.. . . . :.l l V . . <.-.@ [.. . . . . . . . J @ }.|.. ",
". . 1.l 2.. . . b 3.4.l 5.. . . . . . . . . . . . . . . . . . . ",
". . 6.l l 7.8.F 9.0.a.l b.V c.. . . . . . . . . . . . . . . . . ",
". . . d.&.e.(.f.g.. h.i.j.k.l.. . . . . . . . . . . . . . . . . ",
". . . . . . . . . . . . . . . . . . . . . . . . . . . . . . . . ",
". . . . . . . . . . . . . . . . . . . . . . . . . . . . . . . . ",
". . . . . . . . . . . . . . . . . . . . . . . . . . . . . . . . ",
". . . . . . . . . . . . . . . . . . . . . . . . . . . . . . . . ",
". . . . . . . . . . . . . . . . . . . . . . . . . . . . . . . . ",
". . . . . . . . . . . . . . . . . . . . . . . . . . . . . . . . ",
". . . . . . . . . . . . . . . . . . . . . . . . . . . . . . . . "};
